<svg width="24" height="24" viewBox="0 0 24 24" fill="none" xmlns="http://www.w3.org/2000/svg">
<path fill-rule="evenodd" clip-rule="evenodd" d="M12 2C17.5228 2 22 6.47715 22 12C22 17.5228 17.5228 22 12 22C6.47715 22 2 17.5228 2 12C2 6.47715 6.47715 2 12 2ZM15.948 17.4715C15.8413 18.0361 15.7179 18.5982 15.5779 19.1573C16.7071 18.5917 17.6838 17.7668 18.43 16.7606C17.616 17.0553 16.7867 17.2923 15.948 17.4715ZM13.8413 17.7986C13.6893 18.5024 13.5092 19.2016 13.3012 19.8947C12.8777 19.964 12.4431 20 12 20C11.5569 20 11.1223 19.964 10.6988 19.8947C10.4908 19.2016 10.3107 18.5024 10.1587 17.7986C11.3832 17.9185 12.6168 17.9185 13.8413 17.7986ZM16.2706 15.3399C17.394 15.0463 18.4943 14.6348 19.5528 14.1056L19.7456 14.0092C19.8306 13.6805 19.8953 13.3436 19.9381 13H16.4435C16.417 13.7814 16.3593 14.562 16.2706 15.3399ZM14.2041 15.7442C12.7412 15.9367 11.2588 15.9367 9.79593 15.7442C9.67053 14.8331 9.59113 13.9172 9.55771 13H14.4423C14.4089 13.9172 14.3295 14.8331 14.2041 15.7442ZM7.72941 15.3399C7.64065 14.562 7.58301 13.7814 7.55647 13H4.06189C4.10474 13.3436 4.16939 13.6805 4.2544 14.0092L4.44721 14.1056C5.50575 14.6348 6.606 15.0463 7.72941 15.3399ZM5.56999 16.7606C6.31617 17.7668 7.29291 18.5917 8.42211 19.1573C8.28209 18.5982 8.15872 18.0361 8.05202 17.4715C7.21331 17.2923 6.38396 17.0553 5.56999 16.7606ZM16.4435 11C16.417 10.2186 16.3593 9.43803 16.2706 8.66013C17.394 8.95373 18.4943 9.36516 19.5528 9.89443L19.7456 9.99083C19.8306 10.3195 19.8953 10.6564 19.9381 11H16.4435ZM14.4423 11C14.4089 10.0828 14.3295 9.16693 14.2041 8.25581C12.7412 8.06334 11.2588 8.06334 9.79593 8.25581C9.67053 9.16693 9.59113 10.0828 9.55771 11H14.4423ZM18.43 7.23943C17.616 6.94467 16.7867 6.70768 15.948 6.52846C15.8413 5.96394 15.7179 5.40178 15.5779 4.84272C16.7071 5.4083 17.6838 6.23324 18.43 7.23943ZM10.6988 4.10529C10.4908 4.79835 10.3107 5.4976 10.1587 6.20136C11.3832 6.08149 12.6168 6.08149 13.8413 6.20136C13.6893 5.4976 13.5092 4.79835 13.3012 4.10529C12.8777 4.03602 12.4431 4 12 4C11.5569 4 11.1223 4.03602 10.6988 4.10529ZM8.42211 4.84272C8.28209 5.40178 8.15872 5.96394 8.05202 6.52846C7.21331 6.70768 6.38396 6.94467 5.56999 7.23943C6.31617 6.23324 7.29291 5.4083 8.42211 4.84272ZM7.55647 11C7.58301 10.2186 7.64065 9.43803 7.72941 8.66013C6.606 8.95373 5.50575 9.36516 4.44721 9.89443L4.2544 9.99083C4.16939 10.3195 4.10474 10.6564 4.06189 11H7.55647Z" fill="#2269D3"/>
</svg>
