<svg width="40" height="40" viewBox="0 0 40 40" fill="none" xmlns="http://www.w3.org/2000/svg">
<g clip-path="url(#clip0_2579_872)">
<path d="M27.0525 23.0498C27.3002 23.1705 27.4993 23.2675 27.6013 23.3164C27.6837 23.356 27.7596 23.391 27.8292 23.4231C28.1117 23.5533 28.291 23.636 28.3846 23.7831C28.5013 23.9664 28.5013 24.7831 28.1513 25.7498C27.818 26.7164 26.168 27.5998 25.368 27.7164C24.6513 27.8164 23.7513 27.8664 22.768 27.5498C22.168 27.3664 21.4013 27.1164 20.418 26.6831C16.4663 24.9782 13.8095 21.0948 13.4088 20.5091C13.3904 20.4822 13.3768 20.4622 13.368 20.4498L13.3647 20.4454C13.1525 20.1625 11.6846 18.2058 11.6846 16.1831C11.6846 14.3071 12.5926 13.3107 13.0211 12.8405C13.057 12.8011 13.0896 12.7653 13.118 12.7331C13.5013 12.3164 13.9346 12.2164 14.218 12.2164H15.018C15.0469 12.2184 15.0772 12.2187 15.1086 12.2191C15.3488 12.222 15.6566 12.2257 15.9513 12.9331C16.2846 13.7664 17.118 15.7998 17.218 15.9998C17.318 16.1998 17.3846 16.4331 17.2513 16.7164C17.2399 16.7392 17.2289 16.7613 17.2182 16.7829C17.1029 17.0147 17.0176 17.1863 16.8346 17.3998C16.7708 17.4743 16.7035 17.5556 16.6356 17.6377C16.4907 17.8128 16.3428 17.9916 16.218 18.1164C16.0013 18.3331 15.8013 18.5498 16.0346 18.9664C16.2846 19.3831 17.1013 20.7331 18.3346 21.8331C19.6742 23.0302 20.8432 23.5327 21.4144 23.7782C21.5112 23.8199 21.5909 23.8541 21.6513 23.8831C22.068 24.0998 22.318 24.0664 22.5513 23.7831C22.7846 23.5164 23.568 22.5831 23.8513 22.1664C24.1346 21.7664 24.4013 21.8331 24.7846 21.9664C25.0615 22.0797 26.2887 22.6776 27.0525 23.0498Z" fill="#2269D3"/>
<path fill-rule="evenodd" clip-rule="evenodd" d="M26.3974 4.58319C28.4033 5.41589 30.2233 6.63965 31.7513 8.18311C34.868 11.2998 36.5846 15.4498 36.5846 19.8664C36.5846 28.9664 29.168 36.3831 20.068 36.3831C17.3013 36.3831 14.5846 35.6831 12.168 34.3664L3.41797 36.6664L5.7513 28.0998C4.31797 25.5998 3.5513 22.7664 3.5513 19.8498C3.5513 10.7498 10.968 3.33311 20.068 3.33311C22.2398 3.32554 24.3915 3.7505 26.3974 4.58319ZM13.068 31.6664C15.1846 32.9164 17.6013 33.5831 20.068 33.5831C27.6346 33.5831 33.8013 27.4331 33.768 19.8664C33.7747 18.0616 33.4231 16.2734 32.7336 14.6055C32.0441 12.9375 31.0304 11.423 29.7513 10.1498C27.168 7.54977 23.718 6.11644 20.0513 6.11644C12.4846 6.11644 6.31797 12.2831 6.31797 19.8498C6.31987 22.4318 7.04755 24.9614 8.41797 27.1498L8.7513 27.6664L7.36797 32.7331L12.568 31.3664L13.068 31.6664Z" fill="#2269D3"/>
</g>
<defs>
<clipPath id="clip0_2579_872">
<rect width="40" height="40" fill="white"/>
</clipPath>
</defs>
</svg>
