<svg width="40" height="40" viewBox="0 0 40 40" fill="none" xmlns="http://www.w3.org/2000/svg">
<g clip-path="url(#clip0_2579_874)">
<path fill-rule="evenodd" clip-rule="evenodd" d="M36.3987 15.1163C36.2987 13.783 36.1487 12.733 35.932 11.9497C35.5154 10.4497 34.5487 9.48301 33.0487 9.06634C31.332 8.59967 26.982 8.33301 19.9987 8.33301L17.3487 8.43301C15.5154 8.43301 13.532 8.48301 11.3654 8.59967C9.16536 8.69967 7.73203 8.84967 6.9487 9.06634C5.4487 9.48301 4.48203 10.4497 4.06536 11.9497C3.5987 13.6663 3.33203 16.3497 3.33203 19.9997L3.43203 21.3997C3.43203 22.3997 3.48203 23.5497 3.5987 24.883C3.6987 26.2163 3.8487 27.2663 4.06536 28.0497C4.48203 29.5497 5.4487 30.5163 6.9487 30.933C8.66536 31.3997 13.0154 31.6663 19.9987 31.6663L22.6487 31.5663C24.482 31.5663 26.4654 31.5163 28.632 31.3997C30.832 31.2997 32.2654 31.1497 33.0487 30.933C34.5487 30.5163 35.5154 29.5497 35.932 28.0497C36.3987 26.333 36.6654 23.6497 36.6654 19.9997L36.5654 18.5997C36.5654 17.5997 36.5154 16.4497 36.3987 15.1163ZM25.3154 19.9997L16.6654 24.9997V14.9997L25.3154 19.9997Z" fill="#2269D3"/>
</g>
<defs>
<clipPath id="clip0_2579_874">
<rect width="40" height="40" fill="white"/>
</clipPath>
</defs>
</svg>
