<svg width="32" height="32" viewBox="0 0 32 32" fill="none" xmlns="http://www.w3.org/2000/svg">
<path d="M5.33398 8.00033C5.33398 6.52757 6.52789 5.33366 8.00065 5.33366C9.47341 5.33366 10.6673 6.52757 10.6673 8.00033H13.334C13.334 5.05481 10.9462 2.66699 8.00065 2.66699C5.05513 2.66699 2.66732 5.05481 2.66732 8.00033C2.66732 10.9458 5.05513 13.3337 8.00065 13.3337V10.667C6.52789 10.667 5.33398 9.47308 5.33398 8.00033Z" fill="#2269D3"/>
<path fill-rule="evenodd" clip-rule="evenodd" d="M16.0007 9.33366C13.0551 9.33366 10.6673 11.7215 10.6673 14.667C10.6673 17.6125 13.0551 20.0003 16.0007 20.0003C18.9462 20.0003 21.334 17.6125 21.334 14.667C21.334 11.7215 18.9462 9.33366 16.0007 9.33366ZM13.334 14.667C13.334 13.1942 14.5279 12.0003 16.0007 12.0003C17.4734 12.0003 18.6673 13.1942 18.6673 14.667C18.6673 16.1398 17.4734 17.3337 16.0007 17.3337C14.5279 17.3337 13.334 16.1398 13.334 14.667Z" fill="#2269D3"/>
<path d="M24.0006 5.33366C25.4734 5.33366 26.6673 6.52757 26.6673 8.00033C26.6673 9.47308 25.4734 10.667 24.0006 10.667V13.3337C26.9462 13.3337 29.334 10.9458 29.334 8.00033C29.334 5.05481 26.9462 2.66699 24.0006 2.66699C21.0551 2.66699 18.6673 5.05481 18.6673 8.00033H21.334C21.334 6.52757 22.5279 5.33366 24.0006 5.33366Z" fill="#2269D3"/>
<path d="M12.0007 28.0003C12.0007 25.7912 13.7915 24.0003 16.0007 24.0003C18.2098 24.0003 20.0006 25.7912 20.0006 28.0003H22.6673C22.6673 24.3184 19.6825 21.3337 16.0007 21.3337C12.3188 21.3337 9.33398 24.3184 9.33398 28.0003H12.0007Z" fill="#2269D3"/>
<path d="M8.00065 17.3337C5.79151 17.3337 4.00065 19.1245 4.00065 21.3337H1.33398C1.33398 17.6518 4.31875 14.667 8.00065 14.667V17.3337Z" fill="#2269D3"/>
<path d="M28.0006 21.3337C28.0006 19.1245 26.2098 17.3337 24.0006 17.3337V14.667C27.6825 14.667 30.6673 17.6518 30.6673 21.3337H28.0006Z" fill="#2269D3"/>
</svg>
