<svg width="32" height="32" viewBox="0 0 32 32" fill="none" xmlns="http://www.w3.org/2000/svg">
<path d="M31.2194 19.9995L23.2194 27.9995H7.2194L4.94336 30.2755L3.05794 28.3901L6.11523 25.3328H22.1152L27.4486 19.9995L25.334 17.8849L21.8861 21.3328H18.6673V23.9995H10.6673V21.3328H16.0007V18.6661H8.55273L3.61003 23.6089L1.72461 21.7234L7.44857 15.9995H18.6673V18.6661H20.7819L25.334 14.1141L31.2194 19.9995Z" fill="#2269D3"/>
<path d="M17.1217 3.35104C18.3165 2.35606 20.0399 2.45527 21.1217 3.58151C22.2941 4.80208 22.2939 6.78139 21.1217 8.00208L16.0007 13.3328L10.8796 8.00208C9.70739 6.78139 9.7072 4.80208 10.8796 3.58151C11.9614 2.45527 13.6848 2.35606 14.8796 3.35104L16.0007 4.28593L17.1217 3.35104Z" fill="#2269D3"/>
</svg>
