<svg width="32" height="32" viewBox="0 0 32 32" fill="none" xmlns="http://www.w3.org/2000/svg">
<path d="M6.66732 15.9997C6.66732 21.1543 10.846 25.333 16.0007 25.333C21.1553 25.333 25.334 21.1543 25.334 15.9997H22.6673C22.6673 19.6816 19.6825 22.6663 16.0007 22.6663C12.3188 22.6663 9.33398 19.6816 9.33398 15.9997H6.66732Z" fill="#2269D3"/>
<path d="M13.334 11.333C13.334 12.4376 12.4386 13.333 11.334 13.333C10.2294 13.333 9.33398 12.4376 9.33398 11.333C9.33398 10.2284 10.2294 9.33301 11.334 9.33301C12.4386 9.33301 13.334 10.2284 13.334 11.333Z" fill="#2269D3"/>
<path d="M20.6673 13.333C21.7719 13.333 22.6673 12.4376 22.6673 11.333C22.6673 10.2284 21.7719 9.33301 20.6673 9.33301C19.5627 9.33301 18.6673 10.2284 18.6673 11.333C18.6673 12.4376 19.5627 13.333 20.6673 13.333Z" fill="#2269D3"/>
<path fill-rule="evenodd" clip-rule="evenodd" d="M16.0007 1.33301C7.90048 1.33301 1.33398 7.8995 1.33398 15.9997C1.33398 24.0998 7.90048 30.6663 16.0007 30.6663C24.1008 30.6663 30.6673 24.0998 30.6673 15.9997C30.6673 7.8995 24.1008 1.33301 16.0007 1.33301ZM4.00065 15.9997C4.00065 9.37226 9.37323 3.99967 16.0007 3.99967C22.6281 3.99967 28.0006 9.37226 28.0006 15.9997C28.0006 22.6271 22.6281 27.9997 16.0007 27.9997C9.37323 27.9997 4.00065 22.6271 4.00065 15.9997Z" fill="#2269D3"/>
</svg>
