<svg width="40" height="40" viewBox="0 0 40 40" fill="none" xmlns="http://www.w3.org/2000/svg">
<path d="M8.33268 20.0003C8.33268 26.4436 13.556 31.667 19.9993 31.667C26.4427 31.667 31.666 26.4436 31.666 20.0003H28.3327C28.3327 24.6027 24.6017 28.3337 19.9993 28.3337C15.397 28.3337 11.666 24.6027 11.666 20.0003H8.33268Z" fill="#2269D3"/>
<path d="M16.666 14.167C16.666 15.5477 15.5467 16.667 14.166 16.667C12.7853 16.667 11.666 15.5477 11.666 14.167C11.666 12.7863 12.7853 11.667 14.166 11.667C15.5467 11.667 16.666 12.7863 16.666 14.167Z" fill="#2269D3"/>
<path d="M25.8327 16.667C27.2134 16.667 28.3327 15.5477 28.3327 14.167C28.3327 12.7863 27.2134 11.667 25.8327 11.667C24.452 11.667 23.3327 12.7863 23.3327 14.167C23.3327 15.5477 24.452 16.667 25.8327 16.667Z" fill="#2269D3"/>
<path fill-rule="evenodd" clip-rule="evenodd" d="M19.9993 1.66699C9.87413 1.66699 1.66602 9.87511 1.66602 20.0003C1.66602 30.1255 9.87413 38.3337 19.9993 38.3337C30.1246 38.3337 38.3327 30.1255 38.3327 20.0003C38.3327 9.87511 30.1246 1.66699 19.9993 1.66699ZM4.99935 20.0003C4.99935 11.7161 11.7151 5.00033 19.9993 5.00033C28.2836 5.00033 34.9993 11.7161 34.9993 20.0003C34.9993 28.2846 28.2836 35.0003 19.9993 35.0003C11.7151 35.0003 4.99935 28.2846 4.99935 20.0003Z" fill="#2269D3"/>
</svg>
