<svg width="32" height="32" viewBox="0 0 32 32" fill="none" xmlns="http://www.w3.org/2000/svg">
<path d="M14.666 9.33366V16.5526L19.0565 20.9431L20.9422 19.0575L17.3327 15.448V9.33366H14.666Z" fill="#2269D3"/>
<path fill-rule="evenodd" clip-rule="evenodd" d="M2.66602 16.0003C2.66602 8.63653 8.63555 2.66699 15.9993 2.66699C23.3631 2.66699 29.3327 8.63653 29.3327 16.0003C29.3327 23.3641 23.3631 29.3337 15.9993 29.3337C8.63555 29.3337 2.66602 23.3641 2.66602 16.0003ZM15.9993 5.33366C10.1083 5.33366 5.33268 10.1093 5.33268 16.0003C5.33268 21.8914 10.1083 26.667 15.9993 26.667C21.8904 26.667 26.666 21.8914 26.666 16.0003C26.666 10.1093 21.8904 5.33366 15.9993 5.33366Z" fill="#2269D3"/>
</svg>
