<svg width="32" height="32" viewBox="0 0 32 32" fill="none" xmlns="http://www.w3.org/2000/svg">
<path fill-rule="evenodd" clip-rule="evenodd" d="M5.33398 1.33301V3.99967H1.33398V29.333H30.6673V3.99967H26.6673V1.33301H23.5501C22.8891 1.33301 22.2293 1.38762 21.5773 1.49628L20.3723 1.69711C18.8973 1.94295 17.503 2.53959 16.3067 3.43679L16.0007 3.66634L15.6946 3.43679C14.4983 2.53959 13.104 1.94295 11.629 1.69711L10.424 1.49628C9.77199 1.38762 9.11215 1.33301 8.45118 1.33301H5.33398ZM8.00065 22.6729V3.99967H8.45118C8.96527 3.99967 9.47848 4.04215 9.98557 4.12666L11.1906 4.3275C12.2441 4.50309 13.2401 4.92926 14.0946 5.57012L14.6673 5.99967V24.509L14.4388 24.3947C14.0438 24.1972 13.6352 24.028 13.2163 23.8883L11.3978 23.2821C10.3 22.9162 9.15576 22.7112 8.00065 22.6729ZM17.334 24.509L17.5625 24.3947C17.9575 24.1972 18.3661 24.028 18.785 23.8883L20.6035 23.2821C21.7013 22.9162 22.8455 22.7112 24.0006 22.6729V3.99967H23.5501C23.036 3.99967 22.5228 4.04215 22.0157 4.12666L20.8107 4.3275C19.7572 4.50309 18.7612 4.92926 17.9067 5.57012L17.334 5.99967V24.509ZM26.6673 6.66634H28.0006V26.6663H18.9938C19.2009 26.5729 19.4127 26.49 19.6283 26.4181L21.4468 25.812C22.3985 25.4947 23.3951 25.333 24.3983 25.333H26.6673V6.66634ZM12.373 26.4181C12.5886 26.49 12.8004 26.5729 13.0075 26.6663H4.00065V6.66634H5.33398V25.333H7.60302C8.60619 25.333 9.60279 25.4947 10.5545 25.812L12.373 26.4181Z" fill="#2269D3"/>
</svg>
