<svg width="32" height="32" viewBox="0 0 32 32" fill="none" xmlns="http://www.w3.org/2000/svg">
<path fill-rule="evenodd" clip-rule="evenodd" d="M12.0007 12C12.0007 9.79086 13.7915 8 16.0007 8C18.2098 8 20.0006 9.79086 20.0006 12C20.0006 14.2091 18.2098 16 16.0007 16C13.7915 16 12.0007 14.2091 12.0007 12ZM16.0007 10.6667C15.2643 10.6667 14.6673 11.2636 14.6673 12C14.6673 12.7364 15.2643 13.3333 16.0007 13.3333C16.737 13.3333 17.334 12.7364 17.334 12C17.334 11.2636 16.737 10.6667 16.0007 10.6667Z" fill="#2269D3"/>
<path fill-rule="evenodd" clip-rule="evenodd" d="M28.0006 4H4.00065V24H28.0006V4ZM22.1126 21.3333H25.334V6.66667H6.66732V21.3333H9.88871C10.9175 18.9788 13.2669 17.3333 16.0007 17.3333C18.7344 17.3333 21.0838 18.9788 22.1126 21.3333ZM13.0192 21.3333H18.9821C18.2497 20.515 17.1853 20 16.0007 20C14.816 20 13.7516 20.515 13.0192 21.3333Z" fill="#2269D3"/>
<path d="M30.6673 28V25.3333H1.33398V28H30.6673Z" fill="#2269D3"/>
</svg>
